<?xml version="1.0" encoding="UTF-8" standalone="no"?>
<!DOCTYPE svg PUBLIC "-//W3C//DTD SVG 20010904//EN"
        "http://www.w3.org/TR/2001/REC-SVG-20010904/DTD/svg10.dtd">

<svg xmlns="http://www.w3.org/2000/svg"
     width="1.6in" height="1.2in"
     viewBox="0 0 200 230">
    <!--<path id="a"
          fill="#353535" stroke="none" stroke-width="1"
          d="M 26.22,69.74
           C 31.11,68.45 36.92,69.00 42.00,69.00
             42.00,69.00 69.00,69.00 69.00,69.00
             69.00,69.00 157.00,69.00 157.00,69.00
             157.00,69.00 183.00,69.00 183.00,69.00
             185.64,69.01 189.24,68.78 191.28,70.74
             194.09,73.45 193.99,80.33 194.00,84.00
             194.00,84.00 194.00,166.00 194.00,166.00
             193.98,178.55 191.55,180.98 179.00,181.00
             179.00,181.00 59.00,181.00 59.00,181.00
             59.00,181.00 35.00,181.00 35.00,181.00
             31.16,180.95 27.27,180.85 24.51,177.72
             21.72,174.56 22.01,169.94 22.00,166.00
             22.00,166.00 22.00,95.00 22.00,95.00
             22.00,88.06 20.17,74.05 26.22,69.74"/>-->
    <path id="b"
          fill="#3c787b" stroke="none" stroke-width="1"
          d="M 73.00,108.00
           C 82.46,102.84 85.22,108.13 92.00,115.00
             94.56,117.60 98.47,121.09 98.56,125.00
             98.69,130.36 88.23,140.65 84.00,143.26
             81.36,144.89 77.03,145.80 75.03,142.69
             70.29,135.33 86.07,129.50 84.01,123.84
             81.83,117.85 75.34,117.76 73.00,108.00 Z
           M 113.15,137.74
           C 118.30,136.41 129.22,136.97 135.00,137.00
             136.98,137.01 140.06,136.93 141.85,137.74
             144.97,139.15 146.24,144.61 143.43,146.83
             141.74,148.15 138.08,147.99 136.00,147.84
             136.00,147.84 114.06,147.84 114.06,147.84
             109.12,146.34 108.82,140.74 113.15,137.74 Z" />
</svg>
