<?xml version="1.0" standalone="no"?>
<!DOCTYPE svg PUBLIC "-//W3C//DTD SVG 20010904//EN"
 "http://www.w3.org/TR/2001/REC-SVG-20010904/DTD/svg10.dtd">
<svg version="1.0" xmlns="http://www.w3.org/2000/svg"
 width="600.000000pt" height="600.000000pt" viewBox="0 0 600.000000 600.000000"
 preserveAspectRatio="xMidYMid meet">
<metadata>
Created by potrace 1.14, written by Peter Selinger 2001-2017
</metadata>
<g transform="translate(0.000000,600.000000) scale(0.100000,-0.100000)"
fill="#000000" stroke="none">
<path d="M933 4208 c-79 -17 -127 -108 -141 -264 -4 -44 -5 -603 -2 -1244 l5
-1165 28 -56 c28 -59 74 -99 138 -122 44 -15 3854 -23 3993 -8 141 16 203 58
238 160 17 48 24 2385 8 2505 -12 93 -41 152 -90 180 -35 21 -37 21 -2085 22
-1265 1 -2066 -2 -2092 -8z m1422 -962 c64 -30 340 -309 373 -377 29 -60 28
-122 -3 -185 -58 -117 -267 -334 -369 -383 -27 -14 -62 -21 -98 -21 -50 0 -60
4 -87 30 -36 37 -47 85 -31 135 7 22 52 79 117 148 58 62 112 127 120 146 28
65 -4 127 -120 232 -32 28 -72 72 -89 96 -28 41 -71 144 -63 151 2 2 29 14 62
28 73 30 125 30 188 0z m1523 -801 c45 -27 76 -94 69 -148 -7 -52 -52 -97
-100 -98 -149 -5 -716 5 -730 13 -28 14 -57 69 -57 106 0 44 27 99 58 120 41
27 93 30 417 29 290 -2 312 -3 343 -22z"/>
</g>
</svg>
